<?xml version="1.0" encoding="UTF-8"?>
<svg width="122.78mm" height="85.042mm" version="1.1" viewBox="0 0 122.78 85.042" xml:space="preserve" xmlns="http://www.w3.org/2000/svg"><g transform="translate(-23.366 -21.892)"><path d="m109.41 105.96c-0.0803-0.53571-0.1016-1.8974-0.0473-3.0259 0.0844-1.7531 0.18376-2.1968 0.68237-3.0476l0.58357-0.99579h-1.3102v-1.2646c0-1.1863 0.0387-1.2846 0.62449-1.5875 0.38039-0.19671 1.1878-0.32293 2.0658-0.32293 1.2052 0 1.484-0.0684 1.7019-0.41742 0.15615-0.25004 0.39163-0.36717 0.58724-0.29211 0.21213 0.0814 0.76008-0.2882 1.5637-1.0547 1.2655-1.207 1.3455-1.4108 0.55418-1.4108-0.5504 0-3.4741-1.3936-5.0834-2.4231-0.64646-0.41353-1.2202-0.75188-1.275-0.75188-0.0548 0-0.39489 0.64293-0.75578 1.4288-0.60867 1.3253-0.64692 1.5457-0.52839 3.0443 0.13499 1.7069 0.0326 2.3002-0.397 2.3002-0.42597 0-0.92081-0.67892-1.9473-2.6718-0.89738-1.7421-0.9592-1.9639-0.84819-3.0432 0.0658-0.64029 0.18087-1.3707 0.2556-1.6231 0.10929-0.36911 0.0388-0.47263-0.36052-0.52916-0.4452-0.063-0.4964-0.17944-0.4964-1.1286v-1.0583l1.9302-0.61875-0.0813-1.7015c-0.0636-1.3319 0.014-1.9727 0.35733-2.9503 0.30095-0.8569 0.37197-1.3292 0.22627-1.5047-0.32125-0.38708 0.69065-3.0672 1.158-3.0672 0.133 0 0.44378-0.64293 0.69062-1.4288 0.24685-0.78581 0.51393-1.5954 0.59352-1.7992 0.12929-0.33093-0.0107-0.37042-1.313-0.37042-3.2277 0-11.998 1.336-17.426 2.6545-10.88 2.6429-23.944 8.0963-51.964 21.691-13.272 6.4393-14.522 7.0288-14.645 6.9055-0.33099-0.33099 1.0037-1.6294 7.7652-7.5541 4.5273-3.967 6.0791-5.5605 6.3418-6.5118 0.15255-0.55249 0.1199-1.1808-0.12228-2.3532-0.18171-0.87973-0.37848-1.6773-0.43726-1.7724-0.18326-0.29651 0.94821-1.7279 2.3218-2.9372 0.72372-0.63717 2.7446-2.399 4.4909-3.9153 1.7463-1.5162 3.6274-3.2433 4.1804-3.838l1.0054-1.0812v-2.0784c0-1.8967 0.29546-5.1862 0.53847-5.9949 0.10189-0.33909 1.6691-1.0343 5.6851-2.5219 1.2692-0.47015 2.4307-0.95687 2.581-1.0816 0.1503-0.12473 0.47251-0.8255 0.71602-1.5573 0.24351-0.73175 0.77429-1.7178 1.1795-2.1912 0.75734-0.88478 1.4025-1.1846 3.0583-1.4211 1.5062-0.2152 1.6933-0.30754 1.6933-0.83563 0-1.0244-2.5907-2.7449-5.8208-3.8658-1.0209-0.35425-2.2715-0.57126-4.0217-0.69787-1.397-0.10105-2.5682-0.18948-2.6026-0.19649-0.03443-7e-3 -0.4304-0.81264-0.87994-1.7903-0.76264-1.6586-0.90008-1.826-2.0541-2.5019-0.6802-0.39841-2.155-1.1592-3.2772-1.6906l-2.0405-0.96618-0.23623-1.559c-0.55802-3.6828-0.43106-3.3768-1.7677-4.2593-0.66914-0.44178-2.6218-1.5281-4.3392-2.4142l-3.1226-1.6109-0.58723-2.0075c-1.1529-3.9415-0.79111-3.5312-6.4853-7.3538-2.7747-1.8627-4.9809-3.412-4.9026-3.443 0.07824-0.031 2.4237 0.47509 5.212 1.1246 2.7884 0.64951 6.689 1.5507 8.6681 2.0026 18.293 4.1772 28.335 6.8559 37.253 9.9372 13.575 4.69 24.932 10.406 36.887 18.562l3.2322 2.2054 0.757-0.5774c0.41636-0.31757 1.3903-0.87964 2.1644-1.249l1.4074-0.67166-1.3927-0.84696 0.67086-0.13417c1.155-0.231 1.702-0.14928 2.0737 0.30976 0.22833 0.28198 0.54217 0.41711 0.86027 0.37042l0.5008-0.0735-0.58058-0.68792c-0.31932-0.37836-0.4738-0.68792-0.3433-0.68792 0.49918 0 1.6209 0.60364 2.1127 1.1369 0.48917 0.53045 1.286 0.76177 1.286 0.37332 0-0.10071-0.19742-0.43409-0.4387-0.74083l-0.43869-0.55771h0.51362c0.51363 0 1.6338 0.85409 1.6338 1.2457 0 0.11419 0.59531 0.53095 1.3229 0.92614 4.4741 2.43 5.4504 3.1287 5.4504 3.9004 0 0.27232 0.11376 0.67729 0.25279 0.89992 0.19603 0.31389 0.19581 0.52984-1e-3 0.96175-0.13958 0.30634-0.19734 0.78182-0.12837 1.0566 0.092 0.36644 0.0113 0.56071-0.3026 0.7287-0.67597 0.36177-1.189 0.2713-1.7306-0.30518-0.42408-0.45141-0.52988-0.48423-0.68241-0.21167-0.34842 0.6226-0.95255 0.35373-1.5311-0.68144-0.41207-0.73727-0.52822-1.1795-0.43721-1.6646 0.11901-0.63439 0.0857-0.67133-0.83736-0.92978-0.92635-0.25936-1.0001-0.24504-2.0278 0.39381-0.58656 0.36462-1.3046 0.7227-1.5955 0.79573-0.38477 0.0966-0.49022 0.22671-0.38662 0.4771 0.0784 0.18936 0.19153 0.51529 0.25148 0.72428 0.06 0.209 0.47513 0.56677 0.92261 0.79505 1.2888 0.65752 2.217 1.5945 2.7064 2.7319 0.34645 0.80536 0.67604 1.1834 1.4034 1.6096 0.79354 0.46505 0.97169 0.68927 1.0786 1.3575l0.128 0.80046 2.3583 0.48161c1.2971 0.26489 2.7161 0.52461 3.1534 0.57716 0.94161 0.11315 1.173 0.36886 0.60759 0.67146-0.40208 0.21519-0.40217 0.23067-6e-3 1.0079 0.22134 0.43413 0.40243 1.0704 0.40243 1.4139 0 0.88248-0.8986 2.3082-1.7406 2.7617l-0.71324 0.3841 1.174 1.1831c1.1404 1.1492 1.1751 1.2189 1.2127 2.4327 0.0213 0.68728-0.0419 1.4617-0.14046 1.721-0.12337 0.32447-0.0345 0.89166 0.28521 1.8201 0.44233 1.2846 0.50602 1.3592 1.339 1.5689 0.48103 0.12111 1.0496 0.38034 1.2635 0.57606 0.71765 0.65661 1.743 2.5893 2.598 4.897 0.4917 1.3271 1.2148 2.7952 1.7203 3.4925 1.2405 1.7114 3.3679 5.1759 3.3707 5.4893 4e-3 0.43496-0.18444 0.32373-1.7657-1.0428l-1.5128-1.3074-0.0663 0.67235c-0.0809 0.82026-0.29757 0.85026-0.78358 0.10852-0.20319-0.31011-0.7459-0.97225-1.206-1.4714-0.59356-0.64394-0.7991-1.0257-0.70753-1.3142 0.17005-0.53579-1.2412-1.8296-1.7575-1.6113-0.72195 0.30521-1.2674 0.33635-1.7131 0.0978-0.36218-0.19383-0.40863-0.30934-0.21717-0.54004 0.26408-0.31818 0.11376-0.73534-0.26496-0.73534-0.12948 0-0.40603 0.15439-0.61455 0.3431-0.35068 0.31737-0.43296 0.31134-1.0968-0.0803l-0.71763-0.4234-0.93075 1.3997c-0.7789 1.1713-1.0708 1.4393-1.7889 1.6424-1.0929 0.30909-2.4768 1.0129-2.8311 1.4398-0.22809 0.27484-0.21701 0.35243 0.0659 0.46098 0.18707 0.0718 0.29153 0.20916 0.23212 0.30528-0.25591 0.41407-4.7225 1.9331-8.0387 2.7339-1.9791 0.47788-3.9938 0.97122-4.4772 1.0963-1.2432 0.32173-3.6997 3.0396-4.5288 5.0105-0.6011 1.429-1.258 2.3702-1.6541 2.3702-0.11809 0-0.28044-0.43832-0.36078-0.97404zm25.166-15.887c0.15247-0.15246-0.2345-0.70739-0.49328-0.70739-0.0886 0-0.21088 0.1905-0.27177 0.42333-0.0794 0.30353-6e-3 0.42333 0.25754 0.42333 0.20253 0 0.43091-0.0627 0.50751-0.13927zm-1.762-2.1042c0-0.53958-0.89988-1.7404-2.1107-2.8165-1.4195-1.2616-2.546-2.82-2.546-3.5221 0-0.27344-0.11189-0.3226-0.47625-0.20925-1.1627 0.3617-2.6944 0.36533-3.827 9e-3 -0.95193-0.29942-1.295-0.32101-1.9044-0.11986-0.96557 0.31867-1.3415 0.75137-1.005 1.1568 0.16144 0.19454 0.19882 0.66462 0.10755 1.3526l-0.13988 1.0545 1.0296 0.1203c0.56629 0.0662 1.7916 0.18202 2.7229 0.25747 2.9726 0.24081 5.8533 1.1838 7.3045 2.391 0.52926 0.44027 0.84465 0.56194 0.84465 0.32584z" stroke-width=".21167"/><path transform="scale(.26458)" d="m414.25 399.28c-1.3872-3.615 0.63212-19.421 2.752-21.54 2.5086-2.5086 2.1163-4.417-0.90783-4.417-1.8816 0-2.4822-1.3213-2.1021-4.6246 0.4578-3.9787 1.4715-4.7661 7.2587-5.6379 3.6996-0.55733 8.6185-1.7948 10.931-2.7499 4.3316-1.7892 11.165-8.3491 9.9395-9.5414-0.37972-0.36943-6.5679-3.7078-13.752-7.4187l-13.061-6.747-2.4941 4.823c-1.3717 2.6527-2.4941 8.3106-2.4941 12.573 0 4.8114-0.64678 7.3505-1.7057 6.696-3.4727-2.1463-8.3842-14.354-8.3842-20.84 0-3.6819-0.75674-7.1621-1.6816-7.7337-3.0584-1.8902-1.7467-5.8054 2.2838-6.817 3.6538-0.91704 4.0506-2.1028 5.0484-15.084 0.78993-10.277 2.2197-16.227 5.2837-21.99 6.3301-11.905 5.7829-14.126-3.4813-14.126-12.666 0-43.883 5.065-67.152 10.896-42.159 10.564-90.693 31.036-205.01 86.475-21.19 10.276-38.809 18.403-39.152 18.059-0.34356-0.34354 5.6427-6.1638 13.303-12.934 7.66-6.7702 19.069-17.277 25.354-23.349l11.426-11.04-0.46392-10.661c-0.45863-10.539-0.38649-10.731 6.3288-16.817 3.736-3.3857 13.749-12.453 22.25-20.151l15.457-13.995 0.19897-11.23c0.35876-20.249 0.33523-20.213 17.445-27.05 14.041-5.6104 15.404-6.5825 19.069-13.603 4.598-8.8077 5.4882-9.5197 14.997-11.997 3.9309-1.024 7.147-2.8398 7.147-4.0352 0-5.7656-22.521-17.607-33.486-17.607-11.034 0-14.831-1.8152-17.864-8.5396-2.4078-5.3396-5.1326-7.6395-15.176-12.81-11.967-6.1603-12.267-6.4726-13.383-13.917-0.62805-4.1886-1.8276-8.897-2.6658-10.463-0.83813-1.5662-8.3041-6.485-16.591-10.931l-15.067-8.0831-3.8433-10.913c-3.736-10.609-4.2783-11.218-19.435-21.849-8.5755-6.0148-14.949-11.15-14.162-11.412 1.6745-0.55816 68.613 14.904 112.16 25.907 56.921 14.384 113.2 34.832 150.51 54.681 20.407 10.859 48.266 27.656 62.009 37.387l10.718 7.59 8.6207-4.977c4.7414-2.7374 8.4501-5.6703 8.2416-6.5178-0.40965-1.6651 11.962-1.0829 16.775 0.78939 2.1346 0.8304 2.9429 0.31619 2.9429-1.8722 0-2.5984 0.64163-2.4249 4.6246 1.2506 2.5435 2.3472 8.8994 6.6627 14.124 9.59 10.015 5.6112 11.521 7.6238 11.521 15.398 0 5.5517-2.5211 7.7991-5.7463 5.1224-1.2296-1.0205-3.3319-1.4348-4.6718-0.92063-2.4696 0.94766-6.3985-5.3186-6.3985-10.205 0-3.3176-6.8552-3.1296-14.237 0.39059-7.0991 3.3853-7.3137 4.6829-1.5686 9.4853 2.4058 2.0111 5.622 5.0994 7.147 6.863 1.5251 1.7636 5.2323 6.0174 8.2382 9.4529 3.006 3.4355 5.4654 7.0318 5.4654 7.9919s5.1351 2.6632 11.411 3.7848c9.1198 1.6298 11.469 2.6735 11.697 5.1977 0.98114 10.862 0.66228 12.386-3.3068 15.8l-4.1627 3.5806 3.9525 4.595c2.8476 3.3106 3.9525 6.6536 3.9525 11.959 0 10.062 2.305 15.305 7.8943 17.957 3.4689 1.6459 6.9571 6.6913 13.174 19.055 4.6509 9.2491 10.212 19.654 12.358 23.123 3.8206 6.1748 2.7197 8.8384-1.5344 3.7125-1.3889-1.6736-2.7306-2.0157-3.7819-0.96451-1.6143 1.6143-6.5512-3.3814-10.623-10.749-1.1036-1.9971-3.9899-3.5628-7.147-3.877-3.2733-0.32571-5.2958-1.4619-5.2958-2.9749 0-1.7744-1.162-2.1563-4.2231-1.388-3.321 0.83353-4.015 0.51749-3.2487-1.4795 0.53596-1.3967 0.16077-3.0424-0.8337-3.657-0.99449-0.61463-2.3043 0.25475-2.9108 1.932-2.4528 6.7837-7.8462 12.391-14.935 15.526-4.1152 1.8203-7.4821 4.382-7.4821 5.6926 0 2.455-12.367 6.8883-34.298 12.295-13.675 3.3716-21.189 9.1948-27.219 21.095-4.471 8.8231-5.3285 9.5112-6.8645 5.5086zm88.561-68.071c0-0.96453-3.2907-5.3158-7.3127-9.6695-4.022-4.3537-8.0419-9.2703-8.933-10.926-1.2753-2.369-4.2929-3.1558-14.173-3.6951-6.9038-0.37685-13.344-0.15757-14.312 0.48742-0.96778 0.64491-1.7425 3.9835-1.7216 7.419 0.0422 6.9362-0.0676 6.8823 18.136 8.8861 5.2366 0.57643 12.804 2.7922 16.817 4.924 8.2698 4.3936 11.5 5.1164 11.5 2.5737z" stroke-width="0"/></g></svg>
