<?xml version="1.0" encoding="UTF-8"?>
<svg width="223mm" height="178.24mm" version="1.1" viewBox="0 0 223 178.24" xmlns="http://www.w3.org/2000/svg">
<g transform="translate(6.8525 .24985)">
<path d="m-3.2831 46.305c-5.3115-17.464-4.5271-45.756 1.2361-45.925 5.7632-0.16891 107.27-0.62924 107.27-0.62924l107.27 0.62924c4.4915 0.026346 5.5506 47.725-0.9419 62.786-5.3643 12.444-0.61971 31.45-9.2404 32.37-14.366 1.5329 0.31042-18.41-15.337-24.848-13.202-5.4318-31.141-6.1198-12.387 35.034 18.754 41.154 14.86 72.178-16.452 72.265-61.862 0.17226 12.009-99.696-23.771-100.93-32.598-1.1255-1.309 57.169-26.3 50.796-24.991-6.3731-15.809-72.798-29.27-74.167-35.935-3.6533 8.6778 92.682-27.558 90.835s-43.551-61.319-26.433-61.299c17.118 0.020022-2.876-23.899-10.398-23.593-11.493 0.46816 1.7834 34.8-11.05 35.371-12.486 0.55495 3.0351-16.862-6.6463-48.694z" fill="#f60" stroke-width="0"/>
</g>
</svg>
