<?xml version="1.0" encoding="UTF-8"?>
<svg width="218.18mm" height="197.48mm" version="1.1" viewBox="0 0 218.18 197.48" xmlns="http://www.w3.org/2000/svg">
<g transform="translate(4.6876 .24985)">
<path d="m-1.3953 18.618c0.036011-12.43-6.7294-18.384-0.96622-18.553 5.7632-0.16891 107.59-0.31462 107.59-0.31462l107.27 0.62924c2.8648 0.016804-1.3654 9.834-1.8846 27.958-0.69031 24.099 3.9044 68.216-2.32 74.119-10.905 10.342 4.5953-52.246-14.079-54.737-22.164-2.956-6.6003 48.624-33.152 58.316-26.551 9.6922 8.4705 93.61-22.745 91.142-30.832-2.4376-2.664-81.985-8.04-92.437-5.3926-10.484-7.472 35.114-18.75 16.187-11.278-18.927-8.2684-45.725-18.573-39.559-11.967 7.1606-10.514 22.208-24.098 27.597-16.756 6.6478-26.269-3.6782-33.563 8.9968-18.303 31.807-17.725-43.553-17.725-43.553s3.8181-17.604-3.1615-14.784c-5.8298 2.3559-3.5651 12.148-5.7018 18.067-4.2436 11.756-10.206-24.861-10.107-59.076z" fill="#f60" stroke-width="0"/>
</g>
</svg>
