<?xml version="1.0" encoding="UTF-8" standalone="no"?>
<!-- Created with Inkscape (http://www.inkscape.org/) -->

<svg
   width="100.24052mm"
   height="33.820633mm"
   viewBox="0 0 100.24052 33.820633"
   version="1.1"
   id="svg5"
   xml:space="preserve"

   xmlnsInkscape="http://www.inkscape.org/namespaces/inkscape"
   xmlnsSodipodi="http://sodipodi.sourceforge.net/DTD/sodipodi-0.dtd"
   xmlns="http://www.w3.org/2000/svg"
   xmlnsSvg="http://www.w3.org/2000/svg"><sodipodiNamedview
     id="namedview7"
     pagecolor="#ffffff"
     bordercolor="#000000"
     borderopacity="0.25"

     showgrid="false" /><defs
     id="defs2" /><g
    
     id="layer1"
     transform="translate(-42.674359,-18.932981)"><path
       style="fill:#000000;stroke-width:0.264583"
       d="m 90.405346,52.657971 c -0.74185,-0.10306 -1.78915,-0.33271 -2.32734,-0.51033 -0.61169,-0.20187 -1.54427,-0.258 -2.48764,-0.14972 -1.096,0.12581 -1.7784,0.0601 -2.49281,-0.24002 -0.54103,-0.22729 -1.5954,-0.41325 -2.34305,-0.41325 -1.05811,0 -1.53081,-0.14425 -2.13295,-0.65093 -0.42548,-0.35801 -1.18681,-0.72845 -1.69185,-0.82319 -0.63318,-0.11879 -0.91825,-0.31625 -0.91825,-0.63604 0,-0.30643 -0.40701,-0.619219 -1.19959,-0.921908 -1.02987,-0.393311 -1.30705,-0.670994 -1.95907,-1.962647 -0.88801,-1.759125 -4.10868,-4.960975 -5.7092,-5.675823 -0.57971,-0.258918 -1.37548,-0.646087 -1.76838,-0.860376 -0.57131,-0.311589 -0.94222,-0.332551 -1.852091,-0.104671 -0.89136,0.223247 -1.37126,0.202193 -2.21632,-0.09723 -1.32674,-0.470095 -2.233255,-0.345643 -3.963895,0.54419 -1.62888,0.837513 -2.66081,0.706517 -2.93154,-0.372136 -0.35281,-1.405717 1.79554,-4.239809 4.01694,-5.299121 0.50292,-0.239823 0.91439,-0.515198 0.91439,-0.611943 0,-0.207594 -2.67846,-2.540469 -3.8773,-3.377034 -0.45903,-0.320315 -0.99481,-0.583124 -1.19063,-0.584021 -0.19581,-8.96e-4 -0.65368,-0.154834 -1.01749,-0.342084 -0.67777,-0.348849 -6.26834,-0.364536 -8.670078,-0.02433 -1.33001,0.188398 -1.91344,-0.173248 -1.91284,-1.18571 10e-4,-1.966255 2.51773,-4.267082 4.667188,-4.267082 1.36953,0 2.62311,-0.475299 3.97681,-1.50781 0.75933,-0.57917 1.25552,-0.741148 2.27039,-0.741148 1.80507,0 2.08431,0.437712 1.87312,2.936086 l -0.16294,1.92766 1.42657,0.674422 c 3.500655,1.654958 6.516315,2.859111 7.243596,2.892372 0.56594,0.02588 0.8168,0.18618 0.88467,0.565293 0.0521,0.291041 0.47717,0.945885 0.9446,1.455208 0.46742,0.509323 1.2978,1.491726 1.84527,2.183117 1.37883,1.741277 1.91169,1.991919 2.53909,1.194308 0.35182,-0.447269 0.98112,-0.722777 2.20792,-0.966624 2.0114,-0.399804 1.8962,-0.443211 5.33967,2.011918 2.0095,1.432731 2.50412,1.673912 3.175,1.548145 0.43708,-0.08194 1.62812,0.01073 2.64677,0.205934 1.71773,0.329165 2.43766,0.627716 4.89066,2.028132 1.22331,0.698388 2.65573,0.66468 4.18011,-0.09837 0.68639,-0.343578 2.08141,-0.895906 3.10006,-1.227395 1.01865,-0.331489 2.41368,-0.883817 3.10006,-1.227396 0.68639,-0.343578 1.413574,-0.624688 1.615964,-0.624688 0.25422,0 0.4184,-0.482475 0.53111,-1.560764 0.0897,-0.858421 0.40402,-1.969051 0.69845,-2.468067 0.29443,-0.499016 0.61478,-1.667513 0.7119,-2.596659 0.11775,-1.126568 0.51709,-2.416015 1.19874,-3.870608 0.93823,-2.002139 1.02951,-2.400147 1.11156,-4.847032 0.0947,-2.823651 0.26097,-3.468202 0.5524,-2.141323 0.2709,1.233413 0.66628,1.24644 0.66628,0.02195 0,-1.362575 0.51806,-1.163221 0.55625,0.214052 l 0.0271,0.976573 0.20683,-0.873323 c 0.30994,-1.308681 0.47342,-1.290551 0.67823,0.07522 0.17741,1.183077 0.49436,1.330846 0.68874,0.321111 0.0505,-0.262348 0.21089,-0.482836 0.35641,-0.489974 0.34485,-0.01691 0.18739,1.431943 -0.27619,2.541444 -0.20036,0.47952 -0.30197,0.934173 -0.2258,1.010339 0.0762,0.07617 0.60723,0.07561 1.18013,-0.0012 1.5254,-0.204599 1.26187,0.222135 -0.66999,1.084905 -2.00972,0.897559 -2.2571,1.372276 -2.2571,4.331226 0,1.082186 -0.20205,2.72587 -0.449,3.65263 -0.41479,1.556672 -0.41682,1.79174 -0.0266,3.086135 0.23231,0.770615 0.49286,1.715407 0.57901,2.099538 0.31341,1.397463 1.74343,1.044825 2.76171,-0.681026 0.57967,-0.982474 2.44386,-2.001769 3.66104,-2.001769 1.03697,0 2.80718,1.279707 3.25042,2.349786 0.2056,0.496373 0.29562,1.455519 0.22641,2.412369 -0.0941,1.301358 -0.25257,1.732082 -0.87677,2.383608 -0.45351,0.473366 -0.66085,0.883447 -0.51226,1.013198 0.13728,0.119885 1.3807,0.710316 2.76315,1.312069 2.05829,0.895935 2.99575,1.142484 5.17594,1.36126 2.61742,0.262652 4.78218,0.909645 9.35939,2.797284 1.38837,0.57257 1.95056,0.67213 3.04271,0.53883 0.73682,-0.0899 2.6565,-0.22867 4.26596,-0.30832 2.51714,-0.12457 2.97719,-0.0835 3.29028,0.29376 0.30975,0.37321 0.30738,0.47439 -0.0159,0.67893 -0.20893,0.13221 -0.64776,0.2422 -0.97518,0.24442 -0.32742,0.002 -0.59531,0.10849 -0.59531,0.23614 0,0.12764 -0.52493,0.17291 -1.16651,0.1006 -1.01977,-0.11495 -1.16122,-0.0693 -1.12448,0.36323 0.0318,0.37437 -0.16714,0.5167 -0.81786,0.58511 -1.629,0.17125 -3.11342,0.11971 -4.82865,-0.16765 -0.94589,-0.15846 -3.12601,-0.41662 -4.84471,-0.57368 -1.71871,-0.15705 -3.9809,-0.51551 -5.02709,-0.79658 -1.04619,-0.28107 -3.96589,-0.93993 -6.48822,-1.464131 -3.44709,-0.716389 -4.67468,-0.879552 -4.94286,-0.656979 -0.19624,0.162864 -1.14692,0.408011 -2.11262,0.544772 -0.96569,0.13676 -2.55141,0.585288 -3.5238,0.996728 -0.9724,0.41143 -2.35261,0.89354 -3.06714,1.07134 -0.71453,0.1778 -2.00385,0.61989 -2.86516,0.98241 -2.074684,0.87322 -7.417254,1.49717 -9.884514,1.1544 z"
       id="path302" /></g></svg>
